<svg width="24" height="24" viewBox="0 0 24 24" fill="none" xmlns="http://www.w3.org/2000/svg">
<path d="M21 4.2998H3C1.89543 4.2998 1 5.19524 1 6.2998V18.2998C1 19.4044 1.89543 20.2998 3 20.2998H21C22.1046 20.2998 23 19.4044 23 18.2998V6.2998C23 5.19524 22.1046 4.2998 21 4.2998Z" stroke="#292929" stroke-width="1.35" stroke-linecap="round" stroke-linejoin="round"/>
<path fill-rule="evenodd" clip-rule="evenodd" d="M20 17.2998H19V7.2998H20V17.2998ZM15 17.2998H14V7.2998H15V17.2998ZM13 17.2998H12V7.2998H13V17.2998ZM11 17.2998H9V7.2998H11V17.2998ZM8 17.2998H7V7.2998H8V17.2998ZM18 17.2998H16V7.2998H18V17.2998ZM6 17.2998H4V7.2998H6V17.2998Z" fill="#292929"/>
</svg>
