<svg width="24" height="24" viewBox="0 0 24 24" fill="none" xmlns="http://www.w3.org/2000/svg">
<mask id="path-1-inside-1_81_28711" fill="white">
<path fill-rule="evenodd" clip-rule="evenodd" d="M6.10923 6.15771C6.53368 6.15657 6.95415 6.23958 7.34632 6.40193C7.7385 6.56428 8.0946 6.80275 8.39406 7.10356L11.7056 10.4158C11.8207 10.5305 11.9766 10.595 12.1391 10.595C12.3017 10.595 12.4576 10.5305 12.5727 10.4158L15.8724 7.11611C16.1716 6.81492 16.5276 6.57616 16.9198 6.41367C17.3121 6.25118 17.7326 6.16821 18.1572 6.16956H18.5545L14.364 1.97908C14.0537 1.66866 13.6853 1.42242 13.2798 1.25441C12.8743 1.08641 12.4397 0.999939 12.0008 0.999939C11.5619 0.999939 11.1272 1.08641 10.7218 1.25441C10.3163 1.42242 9.94784 1.66866 9.63754 1.97908L5.4624 6.15771H6.10923ZM18.1572 17.8285C17.7329 17.83 17.3126 17.7474 16.9204 17.5856C16.5282 17.4237 16.172 17.1857 15.8724 16.8854L12.572 13.5829C12.4552 13.4713 12.3 13.409 12.1384 13.409C11.9769 13.409 11.8216 13.4713 11.7049 13.5829L8.39336 16.8945C8.09389 17.1952 7.73777 17.4337 7.3456 17.596C6.95343 17.7584 6.53298 17.8414 6.10854 17.8403H5.4624L9.64451 22.0224C10.2717 22.6483 11.1216 22.9998 12.0077 22.9998C12.8938 22.9998 13.7438 22.6483 14.371 22.0224L18.5615 17.8312L18.1572 17.8285ZM19.4885 7.10466L22.0208 9.63692V9.63623C22.3312 9.94653 22.5775 10.315 22.7455 10.7204C22.9135 11.1259 22.9999 11.5606 22.9999 11.9995C22.9999 12.4384 22.9135 12.873 22.7455 13.2785C22.5775 13.684 22.3312 14.0524 22.0208 14.3627L19.4885 16.895C19.4315 16.8715 19.3704 16.8592 19.3087 16.8587H18.1572C17.558 16.8572 16.9837 16.6193 16.559 16.1966L13.2593 12.8976C12.6612 12.2995 11.6178 12.2995 11.0191 12.8976L7.70754 16.2091C7.28292 16.632 6.70855 16.8702 6.10927 16.872H4.69015C4.63184 16.8729 4.5742 16.8845 4.52007 16.9061L1.97735 14.3634C1.35145 13.7362 0.999939 12.8863 0.999939 12.0002C0.999939 11.1141 1.35145 10.2642 1.97735 9.63692L4.52565 7.09351C4.5799 7.11479 4.63747 7.12635 4.69572 7.12766H6.10927C6.70857 7.12934 7.28296 7.36757 7.70754 7.79052L11.0198 11.1007C11.3169 11.3973 11.7196 11.5639 12.1395 11.5639C12.5594 11.5639 12.9621 11.3973 13.2593 11.1007L16.559 7.80307C16.9837 7.38037 17.558 7.1424 18.1572 7.1409H19.3087C19.3704 7.1403 19.4314 7.128 19.4885 7.10466Z"/>
</mask>
<path d="M7.34632 6.40193L7.86269 5.15459L7.86269 5.15459L7.34632 6.40193ZM6.10923 6.15771L6.10923 7.50771L6.11284 7.5077L6.10923 6.15771ZM8.39406 7.10356L7.43731 8.056L7.43936 8.05805L8.39406 7.10356ZM11.7056 10.4158L10.7509 11.3703L10.7525 11.3719L11.7056 10.4158ZM12.5727 10.4158L13.5258 11.3719L13.5273 11.3704L12.5727 10.4158ZM15.8724 7.11611L16.827 8.0707L16.8301 8.06756L15.8724 7.11611ZM16.9198 6.41367L17.4365 7.66088L17.4365 7.66088L16.9198 6.41367ZM18.1572 6.16956L18.1529 7.51956H18.1572V6.16956ZM18.5545 6.16956V7.51956H21.8137L19.5091 5.21496L18.5545 6.16956ZM14.364 1.97908L13.4092 2.9335L13.4094 2.93368L14.364 1.97908ZM13.2798 1.25441L12.7631 2.5016L12.7631 2.5016L13.2798 1.25441ZM10.7218 1.25441L11.2385 2.5016L11.2385 2.5016L10.7218 1.25441ZM9.63754 1.97908L8.68277 1.02467L8.68255 1.02489L9.63754 1.97908ZM5.4624 6.15771L4.50741 5.20351L2.20514 7.50771H5.4624V6.15771ZM16.9204 17.5856L17.4355 16.3377L17.4355 16.3377L16.9204 17.5856ZM18.1572 17.8285L18.1665 16.4785L18.1594 16.4784L18.1523 16.4785L18.1572 17.8285ZM15.8724 16.8854L16.828 15.9319L16.8273 15.9311L15.8724 16.8854ZM12.572 13.5829L13.5269 12.6286L13.5161 12.6178L13.505 12.6072L12.572 13.5829ZM11.7049 13.5829L10.7719 12.6072L10.761 12.6176L10.7503 12.6283L11.7049 13.5829ZM8.39336 16.8945L7.43877 15.9399L7.4367 15.9419L8.39336 16.8945ZM7.3456 17.596L7.86197 18.8434L7.86197 18.8434L7.3456 17.596ZM6.10854 17.8403L6.11202 16.4903H6.10854V17.8403ZM5.4624 17.8403V16.4903H2.20321L4.50781 18.7949L5.4624 17.8403ZM9.64451 22.0224L8.68991 22.977L8.69093 22.978L9.64451 22.0224ZM14.371 22.0224L15.3246 22.978L15.3257 22.9769L14.371 22.0224ZM18.5615 17.8312L19.5161 18.7858L21.798 16.5035L18.5708 16.4813L18.5615 17.8312ZM22.0208 9.63692L21.0662 10.5915L23.3708 12.8961V9.63692H22.0208ZM19.4885 7.10466L20.4431 6.15006L19.8085 5.51546L18.9778 5.85501L19.4885 7.10466ZM22.0208 9.63623L22.9752 8.68146L20.6708 6.3779V9.63623H22.0208ZM22.7455 10.7204L23.9927 10.2037L23.9927 10.2037L22.7455 10.7204ZM22.7455 13.2785L23.9927 13.7952L23.9927 13.7952L22.7455 13.2785ZM22.0208 14.3627L21.0664 13.4079L21.0662 13.4081L22.0208 14.3627ZM19.4885 16.895L18.9743 18.1432L19.8066 18.4861L20.4431 17.8496L19.4885 16.895ZM19.3087 16.8587L19.3181 15.5087H19.3087V16.8587ZM18.1572 16.8587L18.1538 18.2087H18.1572V16.8587ZM16.559 16.1966L15.6045 17.1513L15.6066 17.1534L16.559 16.1966ZM13.2593 12.8976L12.3047 13.8522L12.3048 13.8523L13.2593 12.8976ZM11.0191 12.8976L10.065 11.9424L10.0645 11.943L11.0191 12.8976ZM7.70754 16.2091L8.66018 17.1656L8.66213 17.1637L7.70754 16.2091ZM6.10927 16.872L6.10927 18.222L6.11324 18.222L6.10927 16.872ZM4.69015 16.872V15.522H4.67968L4.66921 15.5221L4.69015 16.872ZM4.52007 16.9061L3.56548 17.8607L4.19518 18.4904L5.02189 18.1594L4.52007 16.9061ZM1.97735 14.3634L1.02174 15.317L1.02276 15.318L1.97735 14.3634ZM1.97735 9.63692L1.02367 8.68141L1.02174 8.68335L1.97735 9.63692ZM4.52565 7.09351L5.01867 5.83675L4.19682 5.51434L3.57197 6.138L4.52565 7.09351ZM4.69572 7.12766L4.66533 8.47732L4.68052 8.47766H4.69572V7.12766ZM6.10927 7.12766L6.11307 5.77766H6.10927V7.12766ZM7.70754 7.79052L8.66183 6.83563L8.6603 6.83411L7.70754 7.79052ZM11.0198 11.1007L10.0655 12.0556L10.066 12.0561L11.0198 11.1007ZM13.2593 11.1007L14.213 12.0561L14.2136 12.0556L13.2593 11.1007ZM16.559 7.80307L15.6066 6.84624L15.6047 6.84817L16.559 7.80307ZM18.1572 7.1409V5.7909L18.1538 5.79091L18.1572 7.1409ZM19.3087 7.1409L19.3087 8.49097L19.3219 8.49084L19.3087 7.1409ZM7.86269 5.15459C7.30568 4.924 6.70848 4.8061 6.10563 4.80771L6.11284 7.5077C6.35888 7.50704 6.60262 7.55516 6.82996 7.64927L7.86269 5.15459ZM9.35081 6.15112C8.92549 5.72388 8.4197 5.38517 7.86269 5.15459L6.82996 7.64927C7.05729 7.74338 7.26372 7.88162 7.43731 8.056L9.35081 6.15112ZM12.6603 9.4613L9.34875 6.14907L7.43936 8.05805L10.7509 11.3703L12.6603 9.4613ZM12.1391 9.24498C12.3339 9.24498 12.5208 9.32221 12.6587 9.45973L10.7525 11.3719C11.1206 11.7389 11.6193 11.945 12.1391 11.945V9.24498ZM11.6196 9.45972C11.7575 9.32221 11.9443 9.24498 12.1391 9.24498V11.945C12.659 11.945 13.1576 11.7389 13.5258 11.3719L11.6196 9.45972ZM14.9178 6.16151L11.6181 9.4612L13.5273 11.3704L16.827 8.0707L14.9178 6.16151ZM16.4031 5.16646C15.8458 5.39736 15.3398 5.73666 14.9146 6.16466L16.8301 8.06756C17.0033 7.89318 17.2095 7.75495 17.4365 7.66088L16.4031 5.16646ZM18.1615 4.81956C17.5582 4.81764 16.9605 4.93556 16.4031 5.16646L17.4365 7.66088C17.6636 7.56681 17.9071 7.51877 18.1529 7.51955L18.1615 4.81956ZM18.5545 4.81956H18.1572V7.51956H18.5545V4.81956ZM13.4094 2.93368L17.5999 7.12415L19.5091 5.21496L15.3186 1.02449L13.4094 2.93368ZM12.7631 2.5016C13.0047 2.60173 13.2243 2.74849 13.4092 2.9335L15.3188 1.02467C14.8831 0.588834 14.3659 0.243104 13.7965 0.00722542L12.7631 2.5016ZM12.0008 2.34994C12.2624 2.34994 12.5214 2.40148 12.7631 2.5016L13.7965 0.00722545C13.2272 -0.228654 12.617 -0.350061 12.0008 -0.350061V2.34994ZM11.2385 2.5016C11.4802 2.40148 11.7392 2.34994 12.0008 2.34994V-0.350061C11.3845 -0.350061 10.7743 -0.228654 10.205 0.00722545L11.2385 2.5016ZM10.5923 2.9335C10.7772 2.74849 10.9968 2.60173 11.2385 2.5016L10.205 0.00722542C9.6357 0.243105 9.11844 0.588835 8.68277 1.02467L10.5923 2.9335ZM6.41739 7.1119L10.5925 2.93328L8.68255 1.02489L4.50741 5.20351L6.41739 7.1119ZM6.10923 4.80771H5.4624V7.50771H6.10923V4.80771ZM16.4053 18.8335C16.9624 19.0634 17.5595 19.1806 18.1621 19.1784L18.1523 16.4785C17.9064 16.4794 17.6628 16.4315 17.4355 16.3377L16.4053 18.8335ZM14.9167 17.8389C15.3423 18.2655 15.8483 18.6035 16.4053 18.8335L17.4355 16.3377C17.2082 16.2439 17.0017 16.1059 16.828 15.9319L14.9167 17.8389ZM11.6171 14.5372L14.9175 17.8397L16.8273 15.9311L13.5269 12.6286L11.6171 14.5372ZM12.1384 14.759C11.9524 14.759 11.7735 14.6872 11.639 14.5586L13.505 12.6072C13.137 12.2554 12.6475 12.059 12.1384 12.059V14.759ZM12.6379 14.5586C12.5034 14.6872 12.3245 14.759 12.1384 14.759V12.059C11.6293 12.059 11.1399 12.2554 10.7719 12.6072L12.6379 14.5586ZM9.34796 17.849L12.6595 14.5375L10.7503 12.6283L7.43877 15.9399L9.34796 17.849ZM7.86197 18.8434C8.41894 18.6128 8.9247 18.2742 9.35002 17.847L7.4367 15.9419C7.26307 16.1163 7.05661 16.2546 6.82924 16.3487L7.86197 18.8434ZM6.10506 19.1903C6.70786 19.1919 7.305 19.0739 7.86197 18.8434L6.82924 16.3487C6.60187 16.4428 6.3581 16.4909 6.11202 16.4903L6.10506 19.1903ZM5.4624 19.1903H6.10854V16.4903H5.4624V19.1903ZM10.5991 21.0678L6.417 16.8857L4.50781 18.7949L8.68992 22.977L10.5991 21.0678ZM12.0077 21.6498C11.4792 21.6498 10.9722 21.4402 10.5981 21.0668L8.69093 22.978C9.57125 23.8565 10.7641 24.3498 12.0077 24.3498V21.6498ZM13.4174 21.0668C13.0433 21.4402 12.5363 21.6498 12.0077 21.6498V24.3498C13.2514 24.3498 14.4442 23.8565 15.3246 22.978L13.4174 21.0668ZM17.6068 16.8767L13.4163 21.0679L15.3257 22.9769L19.5161 18.7858L17.6068 16.8767ZM18.1479 19.1784L18.5521 19.1812L18.5708 16.4813L18.1665 16.4785L18.1479 19.1784ZM22.9754 8.68233L20.4431 6.15006L18.5339 8.05925L21.0662 10.5915L22.9754 8.68233ZM20.6708 9.63623V9.63692H23.3708V9.63623H20.6708ZM23.9927 10.2037C23.7568 9.63439 23.411 9.11713 22.9752 8.68146L21.0664 10.591C21.2514 10.7759 21.3981 10.9955 21.4983 11.2372L23.9927 10.2037ZM24.3499 11.9995C24.3499 11.3832 24.2285 10.773 23.9927 10.2037L21.4983 11.2372C21.5984 11.4788 21.6499 11.7379 21.6499 11.9995H24.3499ZM23.9927 13.7952C24.2285 13.2259 24.3499 12.6157 24.3499 11.9995H21.6499C21.6499 12.2611 21.5984 12.5201 21.4983 12.7618L23.9927 13.7952ZM22.9752 15.3175C23.411 14.8818 23.7568 14.3645 23.9927 13.7952L21.4983 12.7618C21.3981 13.0034 21.2514 13.223 21.0664 13.4079L22.9752 15.3175ZM20.4431 17.8496L22.9754 15.3173L21.0662 13.4081L18.5339 15.9404L20.4431 17.8496ZM19.2992 18.2087C19.1878 18.2079 19.0774 18.1857 18.9743 18.1432L20.0028 15.6467C19.7855 15.5572 19.5531 15.5104 19.3181 15.5088L19.2992 18.2087ZM18.1572 18.2087H19.3087V15.5087H18.1572V18.2087ZM15.6066 17.1534C16.2835 17.8271 17.1989 18.2063 18.1538 18.2087L18.1606 15.5087C17.9172 15.5081 17.6838 15.4115 17.5113 15.2397L15.6066 17.1534ZM12.3048 13.8523L15.6045 17.1513L17.5135 15.2419L14.2138 11.9429L12.3048 13.8523ZM11.9731 13.8527C11.9925 13.8334 12.0469 13.799 12.1394 13.799C12.232 13.799 12.2859 13.8334 12.3047 13.8522L14.2139 11.943C13.0883 10.8174 11.1905 10.8182 10.065 11.9424L11.9731 13.8527ZM8.66213 17.1637L11.9737 13.8522L10.0645 11.943L6.75294 15.2545L8.66213 17.1637ZM6.11324 18.222C7.06823 18.2192 7.98352 17.8396 8.66018 17.1656L6.75489 15.2526C6.58231 15.4244 6.34887 15.5213 6.10531 15.522L6.11324 18.222ZM4.69015 18.222H6.10927V15.522H4.69015V18.222ZM5.02189 18.1594C4.92296 18.199 4.81761 18.2202 4.71108 18.2218L4.66921 15.5221C4.44608 15.5256 4.22545 15.5699 4.01825 15.6529L5.02189 18.1594ZM1.02276 15.318L3.56548 17.8607L5.47467 15.9515L2.93195 13.4088L1.02276 15.318ZM-0.350061 12.0002C-0.350061 13.2438 0.143291 14.4367 1.02174 15.317L2.93296 13.4098C2.55962 13.0357 2.34994 12.5287 2.34994 12.0002H-0.350061ZM1.02174 8.68335C0.143291 9.56367 -0.350061 10.7565 -0.350061 12.0002H2.34994C2.34994 11.4716 2.55962 10.9646 2.93296 10.5905L1.02174 8.68335ZM3.57197 6.138L1.02367 8.68142L2.93103 10.5924L5.47933 8.04901L3.57197 6.138ZM4.72611 5.778C4.82633 5.78026 4.92536 5.80015 5.01867 5.83675L4.03262 8.35026C4.23443 8.42943 4.4486 8.47244 4.66533 8.47732L4.72611 5.778ZM6.10927 5.77766H4.69572V8.47766H6.10927V5.77766ZM8.6603 6.83411C7.98364 6.16002 7.06819 5.78035 6.11307 5.77767L6.10548 8.47765C6.34894 8.47834 6.58228 8.57512 6.75477 8.74694L8.6603 6.83411ZM11.9741 10.1458L8.66183 6.83563L6.75324 8.74542L10.0655 12.0556L11.9741 10.1458ZM12.1395 10.2139C12.0773 10.2139 12.0176 10.1892 11.9735 10.1452L10.066 12.0561C10.6163 12.6054 11.362 12.9139 12.1395 12.9139V10.2139ZM12.3056 10.1452C12.2615 10.1892 12.2018 10.2139 12.1395 10.2139V12.9139C12.917 12.9139 13.6627 12.6054 14.213 12.0561L12.3056 10.1452ZM15.6047 6.84817L12.305 10.1458L14.2136 12.0556L17.5133 8.75797L15.6047 6.84817ZM18.1538 5.79091C17.1989 5.7933 16.2835 6.17256 15.6066 6.84624L17.5113 8.7599C17.6838 8.58818 17.9172 8.49151 18.1606 8.4909L18.1538 5.79091ZM19.3087 5.7909H18.1572V8.4909H19.3087V5.7909ZM18.9778 5.85501C19.0787 5.81376 19.1865 5.79203 19.2955 5.79097L19.3219 8.49084C19.5543 8.48857 19.7842 8.44224 19.9993 8.35431L18.9778 5.85501Z" fill="#1369E9" mask="url(#path-1-inside-1_81_28711)"/>
</svg>
