<svg width="80" height="81" viewBox="0 0 80 81" fill="none" xmlns="http://www.w3.org/2000/svg">
<path d="M40 5.5C20.6719 5.5 5 21.1719 5 40.5C5 59.8281 20.6719 75.5 40 75.5C59.3281 75.5 75 59.8281 75 40.5C75 21.1719 59.3281 5.5 40 5.5ZM55.1172 29.0703L38.6641 51.8828C38.4341 52.2038 38.131 52.4653 37.7797 52.6457C37.4285 52.8261 37.0394 52.9203 36.6445 52.9203C36.2497 52.9203 35.8605 52.8261 35.5093 52.6457C35.1581 52.4653 34.855 52.2038 34.625 51.8828L24.8828 38.3828C24.5859 37.9688 24.8828 37.3906 25.3906 37.3906H29.0547C29.8516 37.3906 30.6094 37.7734 31.0781 38.4297L36.6406 46.1484L48.9219 29.1172C49.3906 28.4687 50.1406 28.0781 50.9453 28.0781H54.6094C55.1172 28.0781 55.4141 28.6562 55.1172 29.0703Z" fill="#52C41A"/>
</svg>
